<svg width="44" height="50" viewBox="0 0 44 50" fill="none" xmlns="http://www.w3.org/2000/svg">
<path fill-rule="evenodd" clip-rule="evenodd" d="M26.4037 6.03998C26.8739 6.38184 27.9371 6.34832 28.5475 5.61571C28.8924 5.2007 31.8771 2.07036 36.067 2.07036C41.4474 2.07036 43.4495 3.8708 43.4495 3.8708C41.5357 0.422523 37.4022 0 36.2015 0C30.3572 0 27.0217 2.78691 26.1535 3.96945C25.2838 5.15216 25.9749 5.72711 26.4037 6.03998ZM42.9685 15.625C42.2186 15.625 42.1872 16.8513 42.1872 17.1874C42.1868 19.3852 40.9454 21.5268 39.8434 22.6561C36.6727 25.905 31.4802 23.0514 31.4802 23.0514C30.6043 22.6973 31.5579 23.5756 31.5579 23.5756C32.0567 24.0927 33.4851 25.6835 36.2881 26.0405C36.1584 26.1777 32.8014 29.6873 32.8014 29.6873H29.6765L26.5515 24.9999C25.7213 26.0985 24.9891 26.5624 23.4265 26.5624C22.5692 26.5624 21.5955 26.4157 20.9117 25.6592C20.2694 24.9488 20.3015 24.0134 20.3015 23.4375C20.2984 21.0935 20.3015 15.1305 20.3015 14.0625V11.3767C20.3015 10.0096 18.7667 8.74919 18.7667 8.74919C16.9447 7.49943 15.6553 10.3148 15.6553 10.3148L15.6354 10.33C14.1371 9.78542 12.5529 9.45264 10.8868 9.45264C8.84662 9.45264 6.45866 9.677 4.67639 10.4658C4.67639 10.0204 4.67639 9.37477 4.67639 9.37477C4.67639 -1.82279 16.7553 5.52196 18.4566 6.12938C20.0436 6.69385 19.7231 4.86966 19.4469 4.56534C15.6386 0.366128 9.16892 0 9.16892 0C0.321955 0 0 8.66382 0 12.4999V20.6252C0 30.5336 12.6388 47.5876 20.4925 48.8859C20.4545 48.9041 21.3271 49.1103 21.678 49.365C21.6917 49.3742 21.7145 49.365 21.7269 49.3727C22.1786 49.7495 22.7476 50 23.3868 50C24.008 50 24.5543 49.7589 24.9968 49.4048C24.9968 49.4048 25.549 49.0858 26.3609 48.825C27.2885 48.5791 28.8772 47.615 29.8643 46.823C33.8699 43.6103 37.9118 38.639 40.7211 31.4711C40.7211 31.4711 41.098 29.7851 40.6142 29.6875C40.1838 29.6004 39.8986 29.6936 38.7359 31.784C34.2986 39.7636 28.1385 45.166 24.9893 45.3126V39.0624C26.9821 38.7557 30.5313 37.1778 32.9285 35.0004C34.491 33.5797 31.6864 33.9033 31.2393 34.085C29.3243 34.8571 28.9367 35.9373 23.4266 35.9373C18.1716 35.9373 15.0329 33.7233 14.0517 32.8124C16.957 32.8124 20.3017 32.8124 20.3017 32.8124L23.4266 29.6873L26.5517 32.8124C26.5517 32.8124 30.2275 32.8124 32.8017 32.8124L38.4855 26.065C43.2601 25.6423 43.7498 20.1114 43.7498 19.5312C43.7498 18.3227 43.7498 18.3459 43.7498 17.1874C43.7498 16.8189 43.7372 15.625 42.9685 15.625ZM14.1241 36.2354C18.3197 38.8754 20.4904 38.8618 21.8642 39.0622V45.3123C14.4615 43.4214 14.0424 38.0643 14.1241 36.2354ZM16.6074 19.8439C15.4416 24.9999 9.61135 24.9999 9.61135 24.9999C6.15225 24.9999 4.67673 23.2267 4.67673 18.5392V11.5881C6.45901 12.3785 8.84696 13.0505 10.8871 13.0505C12.6923 13.0505 14.4059 12.6783 16.0127 12.0449C16.0173 12.0449 16.0216 12.0464 16.0216 12.0464C16.6123 12.0464 16.9418 12.5088 16.9418 12.5088C16.9418 12.5088 17.9061 14.0945 16.6074 19.8439ZM27.739 11.2517C29.817 12.367 32.1243 13.0507 34.5915 13.0507C37.0619 13.0507 39.3674 12.3672 41.4474 11.2517C39.3674 10.1362 37.0619 9.45264 34.5915 9.45264C32.1241 9.45264 29.817 10.1362 27.739 11.2517Z" fill="#161F27"/>
</svg>
