<svg width="24" height="25" viewBox="0 0 24 25" fill="none" xmlns="http://www.w3.org/2000/svg">
<path fill-rule="evenodd" clip-rule="evenodd" d="M18.3 5.94792C17.91 5.54167 17.28 5.54167 16.89 5.94792L12 11.0313L7.10997 5.9375C6.71997 5.53125 6.08997 5.53125 5.69997 5.9375C5.30997 6.34375 5.30997 7 5.69997 7.40625L10.59 12.5L5.69997 17.5937C5.30997 18 5.30997 18.6562 5.69997 19.0625C6.08997 19.4687 6.71997 19.4687 7.10997 19.0625L12 13.9688L16.89 19.0625C17.28 19.4687 17.91 19.4687 18.3 19.0625C18.69 18.6562 18.69 18 18.3 17.5937L13.41 12.5L18.3 7.40625C18.68 7.01042 18.68 6.34375 18.3 5.94792Z" fill="#8750AF"/>
</svg>
