<svg width="25" height="25" viewBox="0 0 25 25" fill="none" xmlns="http://www.w3.org/2000/svg">
<path d="M12.5 25C10.0277 25 7.61099 24.2669 5.55538 22.8934C3.49976 21.5198 1.89761 19.5676 0.951511 17.2835C0.00541606 14.9995 -0.242126 12.4861 0.24019 10.0614C0.722505 7.6366 1.91301 5.40932 3.66117 3.66116C5.40933 1.91301 7.63661 0.722497 10.0614 0.240182C12.4861 -0.242133 14.9995 0.00540843 17.2835 0.951504C19.5676 1.8976 21.5199 3.49975 22.8934 5.55537C24.2669 7.61098 25 10.0277 25 12.5C25 15.8152 23.683 18.9946 21.3388 21.3388C18.9946 23.683 15.8152 25 12.5 25V25ZM12.5 1.92307C10.4081 1.92307 8.36315 2.5434 6.62378 3.70561C4.88441 4.86781 3.52874 6.5197 2.7282 8.45238C1.92766 10.3851 1.7182 12.5117 2.12631 14.5635C2.53443 16.6152 3.54178 18.4998 5.02099 19.979C6.5002 21.4582 8.38483 22.4656 10.4365 22.8737C12.4883 23.2818 14.6149 23.0723 16.5476 22.2718C18.4803 21.4713 20.1322 20.1156 21.2944 18.3762C22.4566 16.6369 23.0769 14.5919 23.0769 12.5C23.0769 9.69482 21.9626 7.00454 19.979 5.02098C17.9955 3.03743 15.3052 1.92307 12.5 1.92307Z" fill="#8750AF"/>
<path d="M17.7885 18.75C17.6619 18.7507 17.5365 18.7265 17.4193 18.6786C17.3022 18.6308 17.1956 18.5603 17.1058 18.4711L11.8173 13.1827C11.7282 13.0928 11.6577 12.9863 11.6098 12.8691C11.562 12.752 11.5377 12.6265 11.5385 12.5V4.80769C11.5385 4.55268 11.6398 4.3081 11.8201 4.12778C12.0004 3.94746 12.245 3.84615 12.5 3.84615C12.755 3.84615 12.9996 3.94746 13.1799 4.12778C13.3602 4.3081 13.4615 4.55268 13.4615 4.80769V12.1058L18.4712 17.1058C18.5613 17.1952 18.6328 17.3015 18.6816 17.4187C18.7304 17.5358 18.7556 17.6615 18.7556 17.7885C18.7556 17.9154 18.7304 18.0411 18.6816 18.1582C18.6328 18.2754 18.5613 18.3818 18.4712 18.4711C18.3813 18.5603 18.2748 18.6308 18.1576 18.6786C18.0405 18.7265 17.915 18.7507 17.7885 18.75Z" fill="#8750AF"/>
</svg>
