<svg width="30" height="20" viewBox="0 0 30 20" fill="none" xmlns="http://www.w3.org/2000/svg">
<path fill-rule="evenodd" clip-rule="evenodd" d="M1.66667 4.76837e-07H8.33333C9.25 4.76837e-07 10 0.75 10 1.66667C10 2.58333 9.25 3.33333 8.33333 3.33333H1.66667C0.75 3.33333 0 2.58333 0 1.66667C0 0.75 0.75 4.76837e-07 1.66667 4.76837e-07ZM0 18.3333C0 17.4167 0.75 16.6667 1.66667 16.6667L28.3333 16.6667C29.25 16.6667 30 17.4167 30 18.3333C30 19.25 29.25 20 28.3333 20L1.66667 20C0.75 20 0 19.25 0 18.3333ZM1.66667 8.33333L18.3333 8.33333C19.25 8.33333 20 9.08333 20 10C20 10.9167 19.25 11.6667 18.3333 11.6667L1.66667 11.6667C0.75 11.6667 0 10.9167 0 10C0 9.08333 0.75 8.33333 1.66667 8.33333Z" fill="#06A77D"/>
</svg>
