<svg width="200" height="200" viewBox="0 0 200 200" fill="none" xmlns="http://www.w3.org/2000/svg">
<path d="M52.5399 84C51.7599 83.218 51.7599 81.958 52.5399 81.18C53.3219 80.4 54.5819 80.4 55.3599 81.18C56.1399 81.96 56.1399 83.22 55.3599 84C54.9819 84.4 54.4599 84.6 53.9399 84.6C53.4399 84.6 52.9199 84.4 52.5399 84ZM48.2799 79.76C47.4999 78.98 47.4999 77.718 48.2799 76.94C49.0619 76.16 50.3399 76.16 51.1199 76.94C51.9019 77.72 51.9019 78.982 51.1199 79.76C50.7199 80.16 50.2199 80.34 49.6999 80.34C49.1999 80.34 48.6799 80.16 48.2799 79.76ZM44.0399 75.52C43.2599 74.74 43.2599 73.48 44.0399 72.7C44.8219 71.92 46.0999 71.92 46.8799 72.7C47.6619 73.482 47.6619 74.742 46.8799 75.52C46.4819 75.9 45.9819 76.1 45.4599 76.1C44.9399 76.1 44.4399 75.9 44.0399 75.52ZM39.7979 71.28C39.0179 70.5 39.0179 69.24 39.7979 68.44C40.5799 67.66 41.8579 67.66 42.6379 68.44C43.4199 69.24 43.4199 70.5 42.6379 71.28C42.2399 71.66 41.7179 71.86 41.2179 71.86C40.6999 71.86 40.1999 71.66 39.7979 71.28Z" fill="#2E4052"/>
<path d="M144.638 84C143.858 83.218 143.858 81.958 144.638 81.18C145.42 80.4 146.68 80.4 147.458 81.18C148.24 81.96 148.24 83.22 147.458 84C147.08 84.4 146.56 84.6 146.06 84.6C145.54 84.6 145.02 84.4 144.638 84ZM148.878 79.76C148.098 78.98 148.098 77.718 148.878 76.94C149.66 76.16 150.92 76.16 151.698 76.94C152.48 77.72 152.48 78.982 151.698 79.76C151.32 80.16 150.798 80.34 150.298 80.34C149.78 80.34 149.26 80.16 148.878 79.76ZM153.12 75.52C152.34 74.74 152.34 73.48 153.12 72.7C153.902 71.92 155.162 71.92 155.96 72.7C156.742 73.482 156.742 74.742 155.96 75.52C155.562 75.9 155.04 76.1 154.54 76.1C154.02 76.1 153.52 75.9 153.12 75.52ZM157.36 71.28C156.58 70.5 156.58 69.24 157.36 68.44C158.14 67.66 159.42 67.66 160.2 68.44C160.982 69.24 160.982 70.5 160.2 71.28C159.8 71.66 159.3 71.86 158.78 71.86C158.26 71.86 157.76 71.66 157.36 71.28Z" fill="#2E4052"/>
<path d="M181.33 73.61C175.148 73.612 168.196 70.348 162.728 64.882C153.406 55.558 151.18 43.178 157.658 36.7C158.372 35.988 159.32 35.61 160.398 35.61C164.056 35.61 169.112 40.254 170.688 44.056C171.846 46.848 170.83 48.454 170.122 49.164C169.084 50.202 167.958 51.19 166.628 51.782C167.614 53.552 168.986 55.344 170.628 56.988C172.268 58.628 174.06 60 175.832 60.986C176.424 59.664 177.408 58.532 178.448 57.492C179.162 56.78 180.11 56.402 181.19 56.402C184.846 56.402 189.902 61.044 191.48 64.846C192.638 67.64 191.622 69.246 190.914 69.956C188.516 72.346 185.204 73.61 181.33 73.61ZM160.398 39.61C155.676 44.34 157.948 54.444 165.556 62.054C170.288 66.786 176.184 69.61 181.33 69.61C184.12 69.61 186.456 68.75 188.082 67.124C188.036 67.076 187.872 65.978 186.36 64.134C184.556 61.932 182.186 60.4 181.188 60.4C179.754 61.842 179.212 62.77 179.272 63.738C179.314 64.416 179.01 65.07 178.466 65.474C177.922 65.88 177.204 65.976 176.57 65.736C173.618 64.62 170.504 62.518 167.8 59.814C165.092 57.104 162.99 53.99 161.878 51.042C161.638 50.408 161.738 49.694 162.14 49.15C162.544 48.604 163.176 48.314 163.874 48.342C163.876 48.342 163.88 48.342 163.884 48.342C165.074 48.342 166.092 47.54 167.294 46.336C167.248 46.288 167.082 45.188 165.57 43.344C163.764 41.142 161.396 39.61 160.398 39.61Z" fill="#2E4052"/>
<path d="M48.7361 52.664L34.3361 38.264C34.2921 38.22 34.2321 38.204 34.1861 38.164C34.0821 38.076 33.9741 38.006 33.8521 37.942C33.7301 37.878 33.6121 37.824 33.4801 37.788C33.4221 37.77 33.3741 37.73 33.3141 37.718C33.2481 37.704 33.1881 37.724 33.1201 37.718C32.9861 37.704 32.8561 37.704 32.7221 37.718C32.5921 37.732 32.4661 37.754 32.3441 37.792C32.2281 37.828 32.1221 37.872 32.0141 37.928C31.8861 37.994 31.7721 38.07 31.6601 38.162C31.6141 38.204 31.5521 38.218 31.5081 38.264L9.90807 59.864C9.86207 59.91 9.84407 59.974 9.80207 60.024C9.71407 60.13 9.64207 60.238 9.57807 60.36C9.51807 60.476 9.46807 60.586 9.43407 60.708C9.39607 60.828 9.37607 60.946 9.36407 61.072C9.34807 61.21 9.34807 61.344 9.36207 61.482C9.36807 61.546 9.34807 61.608 9.36207 61.672C9.37607 61.742 9.41607 61.798 9.43607 61.864C9.46807 61.964 9.50207 62.058 9.55007 62.154C9.62207 62.298 9.70807 62.426 9.81007 62.546C9.85007 62.592 9.86607 62.652 9.91007 62.694L24.3101 77.094C24.7001 77.484 25.2121 77.68 25.7241 77.68C26.2361 77.68 26.7481 77.484 27.1381 77.094L48.7381 55.494C49.5181 54.71 49.5181 53.446 48.7361 52.664ZM29.6661 45.762L27.6241 55.978L17.4081 58.02L29.6661 45.762ZM25.7221 72.85L15.3781 62.506L29.7141 59.638C30.5061 59.48 31.1241 58.86 31.2821 58.07L34.1501 43.734L44.4941 54.078L25.7221 72.85Z" fill="#2E4052"/>
<path d="M120 18H80C78.894 18 78 18.894 78 20V40C78 40.532 78.21 41.04 78.586 41.414C78.962 41.788 79.468 42 80 42L98 41.998V48H90C88.894 48 88 48.894 88 50C88 51.106 88.894 52 90 52H110C111.106 52 112 51.106 112 50C112 48.894 111.106 48 110 48H102V41.998L120 41.996C121.106 41.996 122 41.102 122 39.996V20C122 18.894 121.106 18 120 18ZM118 37.996L82 38V22H118V37.996Z" fill="#2E4052"/>
<path d="M98 63C98 61.9 98.9 61 100 61C101.1 61 102 61.9 102 63C102 64.1 101.1 65 100 65C98.9 65 98 64.1 98 63ZM98 57C98 55.9 98.9 55 100 55C101.1 55 102 55.9 102 57C102 58.1 101.1 59 100 59C98.9 59 98 58.1 98 57Z" fill="#2E4052"/>
<path d="M190.98 118.26L100.98 68.26C100.358 67.92 99.64 67.92 99.02 68.26L9.02 118.26C8.4 118.6 8 119.28 8 120V130C8 130.7 8.38 131.36 8.98 131.72C9.6 132.08 10.358 132.098 10.98 131.74L28 122.28L32 120.062L100 82.28L168 120.06L172 122.278L189.02 131.738C189.34 131.92 189.66 132 190 132C190.36 132 190.7 131.9 191.02 131.72C191.62 131.36 192 130.7 192 130V120C192 119.28 191.6 118.6 190.98 118.26ZM188 126.6L100.98 78.26C100.66 78.08 100.34 78 100 78C99.66 78 99.34 78.08 99.02 78.26L12 126.6V121.18L100 72.28L188 121.18V126.6Z" fill="#2E4052"/>
<path d="M70 148H67V130C67 128.894 66.106 128 65 128H45C43.894 128 43 128.894 43 130V148H40C38.894 148 38 148.894 38 150C38 151.106 38.894 152 40 152H45H65H70C71.106 152 72 151.106 72 150C72 148.894 71.106 148 70 148ZM63 138H57V132H63V138ZM53 132V138H47V132H53ZM47 142H53V148H47V142ZM57 148V142H63V148H57Z" fill="#2E4052"/>
<path d="M160 148H157V130C157 128.894 156.106 128 155 128H135C133.894 128 133 128.894 133 130V148H130C128.894 148 128 148.894 128 150C128 151.106 128.894 152 130 152H135H155H160C161.106 152 162 151.106 162 150C162 148.894 161.106 148 160 148ZM153 138H147V132H153V138ZM143 132V138H137V132H143ZM137 142H143V148H137V142ZM147 148V142H153V148H147Z" fill="#2E4052"/>
<path d="M89.36 137.02C89.88 137.02 90.38 136.82 90.78 136.44C91.562 135.66 91.562 134.38 90.78 133.6C90 132.82 88.72 132.82 87.94 133.6C87.16 134.38 87.16 135.66 87.94 136.44C88.34 136.82 88.84 137.02 89.36 137.02Z" fill="#2E4052"/>
<path d="M91.3601 145.86C92.1201 145.08 92.1201 143.82 91.3601 143.04C90.5621 142.26 89.3001 142.26 88.5201 143.04C87.7401 143.822 87.7401 145.082 88.5201 145.86C88.9201 146.26 89.4201 146.44 89.9401 146.44C90.4401 146.44 90.9581 146.26 91.3601 145.86Z" fill="#2E4052"/>
<path d="M98.4201 137.958C98.9401 137.958 99.4401 137.758 99.8401 137.378C100.62 136.598 100.62 135.32 99.8401 134.538C99.0601 133.778 97.7801 133.778 97.0001 134.538C96.2181 135.32 96.2181 136.598 97.0001 137.378C97.4001 137.76 97.9001 137.958 98.4201 137.958Z" fill="#2E4052"/>
<path d="M94.18 142.2C94.68 142.2 95.2 142.02 95.6 141.62C96.38 140.84 96.38 139.58 95.6 138.8C94.8 138.02 93.54 138.02 92.76 138.8C91.98 139.582 91.98 140.842 92.76 141.62C93.16 142.02 93.66 142.2 94.18 142.2Z" fill="#2E4052"/>
<path d="M89.4801 152.08C88.6981 152.86 88.6981 154.12 89.4801 154.9C89.8781 155.298 90.3781 155.48 90.9001 155.48C91.4001 155.48 91.9201 155.298 92.3201 154.9C93.1001 154.118 93.1001 152.858 92.3201 152.08C91.5401 151.298 90.2601 151.298 89.4801 152.08Z" fill="#2E4052"/>
<path d="M93.7181 147.82C92.9381 148.618 92.9381 149.878 93.7181 150.66C94.1181 151.038 94.6181 151.24 95.1381 151.24C95.6601 151.24 96.1601 151.038 96.5601 150.66C97.3401 149.878 97.3401 148.618 96.5601 147.82C95.7801 147.04 94.5001 147.04 93.7181 147.82Z" fill="#2E4052"/>
<path d="M107.878 138.52C108.378 138.52 108.9 138.32 109.278 137.94C110.06 137.14 110.06 135.88 109.278 135.1C108.498 134.32 107.238 134.32 106.458 135.1C105.678 135.88 105.678 137.14 106.458 137.94C106.84 138.32 107.36 138.52 107.878 138.52Z" fill="#2E4052"/>
<path d="M97.958 143.58C97.178 144.36 97.178 145.638 97.958 146.42C98.358 146.798 98.858 147 99.378 147C99.9 147 100.4 146.798 100.798 146.42C101.58 145.638 101.58 144.36 100.798 143.58C100.02 142.798 98.74 142.798 97.958 143.58Z" fill="#2E4052"/>
<path d="M103.62 142.76C104.14 142.76 104.64 142.56 105.04 142.18C105.822 141.4 105.822 140.12 105.04 139.34C104.26 138.56 103 138.56 102.2 139.34C101.42 140.12 101.42 141.4 102.2 142.18C102.6 142.56 103.12 142.76 103.62 142.76Z" fill="#2E4052"/>
<path d="M109.16 145.218C109.56 145.618 110.06 145.798 110.58 145.798C111.08 145.798 111.6 145.618 111.98 145.218C112.76 144.438 112.76 143.178 111.98 142.4C111.198 141.618 109.938 141.618 109.16 142.4C108.378 143.18 108.378 144.44 109.16 145.218Z" fill="#2E4052"/>
<path d="M107.74 149.458C108.52 148.678 108.52 147.418 107.74 146.638C106.958 145.858 105.698 145.858 104.92 146.638C104.138 147.42 104.138 148.68 104.92 149.458C105.298 149.858 105.82 150.038 106.34 150.038C106.84 150.04 107.36 149.86 107.74 149.458Z" fill="#2E4052"/>
<path d="M103.5 153.7C104.28 152.92 104.28 151.66 103.5 150.88C102.718 150.1 101.458 150.1 100.68 150.88C99.9 151.662 99.9 152.922 100.68 153.7C101.06 154.1 101.58 154.3 102.1 154.3C102.6 154.298 103.12 154.1 103.5 153.7Z" fill="#2E4052"/>
<path d="M97.84 158.54C98.36 158.54 98.88 158.34 99.26 157.94C100.04 157.18 100.04 155.9 99.26 155.12C98.48 154.34 97.218 154.34 96.44 155.12C95.66 155.902 95.66 157.18 96.44 157.94C96.82 158.34 97.34 158.54 97.84 158.54Z" fill="#2E4052"/>
<path d="M89.3601 167.02C89.8801 167.02 90.3801 166.82 90.7801 166.44C91.5621 165.66 91.5621 164.38 90.7801 163.6C90.0001 162.82 88.7201 162.82 87.9601 163.6C87.1621 164.38 87.1621 165.66 87.9601 166.44C88.3401 166.82 88.8601 167.02 89.3601 167.02Z" fill="#2E4052"/>
<path d="M93.6 162.78C94.12 162.78 94.62 162.58 95.02 162.2C95.8 161.42 95.8 160.14 95.02 159.36C94.24 158.58 92.96 158.58 92.18 159.36C91.4 160.14 91.4 161.42 92.18 162.2C92.58 162.58 93.1 162.78 93.6 162.78Z" fill="#2E4052"/>
<path d="M102.298 164.08C102.798 164.08 103.32 163.878 103.718 163.5C104.5 162.718 104.5 161.458 103.718 160.68C102.92 159.9 101.66 159.9 100.878 160.68C100.098 161.46 100.098 162.72 100.878 163.5C101.28 163.878 101.78 164.08 102.298 164.08Z" fill="#2E4052"/>
<path d="M109.36 152.18C108.58 152.96 108.58 154.24 109.36 155.02C109.76 155.4 110.28 155.6 110.78 155.6C111.3 155.6 111.8 155.4 112.2 155.02C112.982 154.24 112.982 152.96 112.2 152.18C111.42 151.4 110.138 151.4 109.36 152.18Z" fill="#2E4052"/>
<path d="M106.54 159.84C107.062 159.84 107.562 159.638 107.96 159.26C108.742 158.48 108.742 157.2 107.96 156.42C107.18 155.66 105.902 155.66 105.12 156.42C104.34 157.2 104.34 158.48 105.12 159.26C105.52 159.638 106.02 159.84 106.54 159.84Z" fill="#2E4052"/>
<path d="M92.4 169.16C91.618 169.94 91.618 171.2 92.4 171.98C92.778 172.378 93.298 172.58 93.82 172.58C94.32 172.58 94.84 172.378 95.218 171.98C96 171.2 96 169.94 95.218 169.16C94.44 168.378 93.18 168.378 92.4 169.16Z" fill="#2E4052"/>
<path d="M88.16 173.4C87.378 174.18 87.378 175.44 88.16 176.218C88.538 176.618 89.06 176.82 89.56 176.82C90.08 176.82 90.6 176.618 90.98 176.218C91.76 175.438 91.76 174.178 90.98 173.4C90.2 172.62 88.94 172.62 88.16 173.4Z" fill="#2E4052"/>
<path d="M99.458 167.74C100.24 166.958 100.24 165.698 99.458 164.92C98.678 164.138 97.418 164.138 96.638 164.92C95.858 165.7 95.858 166.96 96.638 167.74C97.038 168.138 97.538 168.32 98.06 168.32C98.56 168.32 99.08 168.138 99.458 167.74Z" fill="#2E4052"/>
<path d="M109.458 167.74C110.24 166.958 110.24 165.698 109.458 164.92C108.678 164.138 107.418 164.138 106.638 164.92C105.858 165.7 105.858 166.96 106.638 167.74C107.038 168.138 107.538 168.32 108.06 168.32C108.56 168.32 109.08 168.138 109.458 167.74Z" fill="#2E4052"/>
<path d="M102.4 169.16C101.618 169.94 101.618 171.2 102.4 171.98C102.778 172.378 103.298 172.58 103.82 172.58C104.32 172.58 104.84 172.378 105.218 171.98C106 171.2 106 169.94 105.218 169.16C104.44 168.378 103.18 168.378 102.4 169.16Z" fill="#2E4052"/>
<path d="M98.16 173.4C97.378 174.18 97.378 175.44 98.16 176.218C98.538 176.618 99.06 176.82 99.56 176.82C100.08 176.82 100.6 176.618 100.98 176.218C101.76 175.438 101.76 174.178 100.98 173.4C100.2 172.62 98.94 172.62 98.16 173.4Z" fill="#2E4052"/>
<path d="M108.16 173.4C107.378 174.18 107.378 175.44 108.16 176.218C108.538 176.618 109.06 176.82 109.56 176.82C110.08 176.82 110.6 176.618 110.98 176.218C111.76 175.438 111.76 174.178 110.98 173.4C110.2 172.62 108.94 172.62 108.16 173.4Z" fill="#2E4052"/>
<path d="M190 178H172V122.28L168 120.062V178H117V130C117 128.894 116.106 128 115 128H85C83.894 128 83 128.894 83 130V178H32V120.06L28 122.278V178H10C8.894 178 8 178.894 8 180C8 181.106 8.894 182 10 182H85H115H190C191.106 182 192 181.106 192 180C192 178.894 191.106 178 190 178ZM106.978 178C106.902 177.876 106.846 177.744 106.74 177.638C105.958 176.858 104.698 176.858 103.92 177.638C103.814 177.744 103.758 177.876 103.68 178H96.978C96.902 177.876 96.846 177.744 96.74 177.638C95.958 176.858 94.698 176.858 93.92 177.638C93.814 177.744 93.758 177.876 93.68 178H87V169.91C87.142 169.492 87.142 169.046 87 168.628V159.654C87.386 159.59 87.772 159.446 88.08 159.138C88.86 158.358 88.86 157.098 88.08 156.32C87.778 156.018 87.394 155.868 87 155.8V150.168C87.032 150.14 87.07 150.13 87.1 150.1C87.88 149.32 87.88 148.06 87.1 147.28C87.07 147.25 87.032 147.24 87 147.214V139.908C87.142 139.488 87.142 139.034 87 138.616V132H92.064C92.114 132.064 92.138 132.14 92.198 132.2C92.578 132.58 93.098 132.78 93.598 132.78C94.118 132.78 94.618 132.58 95.018 132.2C95.076 132.142 95.1 132.066 95.148 132H100.706C100.764 132.416 100.918 132.82 101.238 133.138C101.636 133.518 102.136 133.718 102.658 133.718C103.178 133.718 103.678 133.518 104.078 133.138C104.396 132.82 104.548 132.416 104.608 132H110.166C110.082 132.598 110.238 133.22 110.698 133.68C111.078 134.08 111.598 134.28 112.118 134.28C112.42 134.28 112.718 134.182 112.998 134.038V160.234C112.29 159.966 111.452 160.108 110.876 160.682C110.096 161.462 110.096 162.722 110.876 163.502C111.276 163.88 111.776 164.082 112.296 164.082C112.53 164.082 112.77 164.03 112.998 163.944V168.762C112.784 168.86 112.576 168.984 112.398 169.162C111.616 169.942 111.616 171.202 112.398 171.982C112.572 172.164 112.778 172.292 112.998 172.392V178H106.978Z" fill="#2E4052"/>
</svg>
