<svg width="27" height="19" viewBox="0 0 27 19" fill="none" xmlns="http://www.w3.org/2000/svg">
<path d="M0 2.73125V15.2312C0 15.6933 0.0910152 16.1509 0.267849 16.5778C0.444683 17.0047 0.703872 17.3926 1.03062 17.7194C1.35736 18.0461 1.74527 18.3053 2.17218 18.4822C2.5991 18.659 3.05666 18.75 3.51875 18.75H22.7312C23.1933 18.75 23.6509 18.659 24.0778 18.4822C24.5047 18.3053 24.8926 18.0461 25.2194 17.7194C25.5461 17.3926 25.8053 17.0047 25.9822 16.5778C26.159 16.1509 26.25 15.6933 26.25 15.2312V2.73125C26.25 2.00688 25.9622 1.31217 25.45 0.799965C24.9378 0.287756 24.2431 0 23.5188 0H2.73125C2.00688 0 1.31217 0.287756 0.799965 0.799965C0.287756 1.31217 0 2.00688 0 2.73125V2.73125Z" fill="url(#paint0_linear)"/>
<path d="M20.7812 0.781249L10.9312 7.81875C10.5654 8.08054 10.2605 8.41821 10.0372 8.80869C9.81392 9.19916 9.67756 9.63323 9.63745 10.0812C9.67756 10.5293 9.81392 10.9633 10.0372 11.3538C10.2605 11.7443 10.5654 12.082 10.9312 12.3437L17.6062 17.1125C19.1021 18.1792 20.8939 18.7517 22.7312 18.75V18.75C23.1933 18.75 23.6509 18.659 24.0778 18.4821C24.5047 18.3053 24.8926 18.0461 25.2193 17.7194C25.5461 17.3926 25.8053 17.0047 25.9821 16.5778C26.1589 16.1509 26.25 15.6933 26.25 15.2312V3.4875C26.2495 3.01077 26.1401 2.54046 25.9299 2.11256C25.7197 1.68465 25.4145 1.3105 25.0375 1.01875L24.7 0.781249C24.128 0.373431 23.443 0.154243 22.7406 0.154243C22.0381 0.154243 21.3532 0.373431 20.7812 0.781249Z" fill="url(#paint1_linear)"/>
<path d="M23.5188 7.5938e-10H2.73125C2.00688 7.59383e-10 1.31217 0.287756 0.799965 0.799965C0.287756 1.31217 0 2.00688 0 2.73125V3.35625C0.00111494 3.72323 0.0895529 4.08467 0.258004 4.41071C0.426456 4.73674 0.670083 5.01801 0.96875 5.23125L11.3188 12.6063C11.8468 12.9803 12.4779 13.1811 13.125 13.1811C13.7721 13.1811 14.4032 12.9803 14.9312 12.6063L25.2813 5.2125C25.5795 4.9989 25.8229 4.71756 25.9913 4.3916C26.1597 4.06565 26.2484 3.70439 26.25 3.3375V2.7125C26.245 1.99138 25.9551 1.30148 25.4434 0.793324C24.9318 0.285164 24.2399 -1.69923e-05 23.5188 7.5938e-10V7.5938e-10Z" fill="url(#paint2_linear)"/>
<path d="M2.73125 0C2.12646 0.000571731 1.53905 0.20232 1.06154 0.573465C0.584033 0.944611 0.243559 1.46406 0.09375 2.05C0.235142 2.55388 0.543705 2.99468 0.96875 3.3L11.3188 10.7C11.8468 11.074 12.4779 11.2749 13.125 11.2749C13.7721 11.2749 14.4032 11.074 14.9312 10.7L25.2812 3.3125C25.7063 3.00718 26.0149 2.56638 26.1562 2.0625C26.0088 1.47424 25.6694 0.951977 25.1916 0.578399C24.7139 0.20482 24.1252 0.00127783 23.5187 0H2.73125Z" fill="url(#paint3_linear)"/>
<defs>
<linearGradient id="paint0_linear" x1="13.125" y1="23.5" x2="13.125" y2="-5.625" gradientUnits="userSpaceOnUse">
<stop stop-color="#27E9DE"/>
<stop offset="0.52" stop-color="#03A4EC"/>
<stop offset="1" stop-color="#2547A8"/>
</linearGradient>
<linearGradient id="paint1_linear" x1="536.42" y1="981.08" x2="536.42" y2="266.074" gradientUnits="userSpaceOnUse">
<stop stop-color="#27E9DE"/>
<stop offset="0.52" stop-color="#03A4EC"/>
<stop offset="1" stop-color="#2547A8"/>
</linearGradient>
<linearGradient id="paint2_linear" x1="3.70972e-05" y1="428.387" x2="171.573" y2="-601.507" gradientUnits="userSpaceOnUse">
<stop stop-color="#27E9DE"/>
<stop offset="0.52" stop-color="#03A4EC"/>
<stop offset="1" stop-color="#2547A8"/>
</linearGradient>
<linearGradient id="paint3_linear" x1="0.0937696" y1="224.596" x2="139.569" y2="-424.913" gradientUnits="userSpaceOnUse">
<stop stop-color="#27E9DE"/>
<stop offset="0.52" stop-color="#03A4EC"/>
<stop offset="1" stop-color="#2547A8"/>
</linearGradient>
</defs>
</svg>
