<svg width="100" height="100" viewBox="0 0 100 100" fill="none" xmlns="http://www.w3.org/2000/svg">
<path fill-rule="evenodd" clip-rule="evenodd" d="M11.1111 100H88.8889C95.0254 100 100 95.0254 100 88.8889V11.1111C100 4.97461 95.0254 0 88.8889 0H11.1111C4.97461 0 0 4.97461 0 11.1111V88.8889C0 95.0254 4.97461 100 11.1111 100Z" fill="#E11616"/>
<path fill-rule="evenodd" clip-rule="evenodd" d="M25 36.3365V64.6494C25 66.1898 26.1274 67.4381 27.6806 67.4381H71.8677C73.4194 67.4381 74.5484 66.1752 74.5484 64.6494V36.3365C74.5484 34.6462 73.5387 33.3333 71.8677 33.3333H27.6806C25.9452 33.3333 25 34.6785 25 36.3365ZM29.0742 38.8027C29.0742 38.1204 29.4871 37.7301 30.1468 37.7301C30.5548 37.7301 46.6113 47.9043 47.5839 48.5011L50.0968 50.064C50.8935 49.5301 51.6935 49.0736 52.5194 48.5204C54.2048 47.443 69.2016 37.7301 69.6145 37.7301C70.2758 37.7301 70.6871 38.1204 70.6871 38.8027C70.6871 39.5252 69.2952 40.243 68.3887 40.7962C62.6935 44.2672 57 48.0511 51.3613 51.6511C51.0323 51.8736 50.3952 52.3494 49.9177 52.2769C49.3855 52.1946 33.0468 41.6978 30.0742 39.9494C29.6274 39.6865 29.0742 39.4462 29.0742 38.8027Z" fill="white"/>
</svg>
