<svg width="20" height="25" viewBox="0 0 20 25" fill="none" xmlns="http://www.w3.org/2000/svg">
<path d="M9.99992 17.3073C11.5279 17.3073 12.8355 16.8365 13.9234 15.8954C15.0111 14.9543 15.555 13.8222 15.555 12.5V4.80782C15.555 3.48564 15.0115 2.35395 13.9234 1.41238C12.8355 0.471021 11.5279 0 9.99992 0C8.47215 0 7.16438 0.471021 6.07642 1.41238C4.9884 2.35379 4.44449 3.48564 4.44449 4.80782V12.5C4.44449 13.8221 4.98865 14.9543 6.07642 15.8954C7.16419 16.8365 8.47215 17.3073 9.99992 17.3073Z" fill="#8750AF"/>
<path d="M19.6695 9.90086C19.4502 9.71053 19.1893 9.61533 18.8883 9.61533C18.5877 9.61533 18.3273 9.71053 18.1071 9.90086C17.8875 10.0911 17.7775 10.3165 17.7775 10.5768V12.5C17.7775 14.353 17.0163 15.9379 15.4943 17.255C13.9728 18.5722 12.1412 19.2307 9.99985 19.2307C7.8586 19.2307 6.0271 18.5722 4.50505 17.255C2.98318 15.9383 2.2223 14.3531 2.2223 12.5V10.5768C2.2223 10.3165 2.1123 10.0911 1.89249 9.90086C1.67255 9.71053 1.41242 9.61533 1.1113 9.61533C0.810189 9.61533 0.549754 9.71053 0.329937 9.90086C0.109939 10.0911 0 10.3165 0 10.5768V12.5C0 14.7135 0.853726 16.6392 2.56069 18.2766C4.26772 19.9141 6.37704 20.8531 8.88873 21.0933V23.0767H4.44442C4.14349 23.0767 3.88312 23.172 3.66324 23.3623C3.4433 23.5525 3.3333 23.7779 3.3333 24.0383C3.3333 24.2983 3.4433 24.5242 3.66324 24.7144C3.88312 24.9045 4.14349 25 4.44442 25H15.555C15.8558 25 16.1166 24.9046 16.3362 24.7144C16.5563 24.5242 16.6664 24.2984 16.6664 24.0383C16.6664 23.778 16.5563 23.5525 16.3362 23.3623C16.1166 23.172 15.8559 23.0767 15.555 23.0767H11.1112V21.0933C13.6225 20.8531 15.7316 19.9141 17.4388 18.2766C19.146 16.6392 20 14.7135 20 12.5V10.5768C20 10.3165 19.8898 10.0914 19.6695 9.90086Z" fill="#8750AF"/>
</svg>
