<svg width="101" height="101" viewBox="0 0 101 101" fill="none" xmlns="http://www.w3.org/2000/svg">
<path d="M70.5025 73.7061C69.8129 73.0128 69.0222 72.4015 68.0907 71.9568C63.6783 69.8455 58.4476 71.7462 56.369 76.0977C54.2758 80.4787 56.1222 85.7307 60.5128 87.8224C64.877 89.9023 70.1391 88.0592 72.2346 83.6815V83.6786L79.2887 68.9062L82.4567 77.8664L87.9798 75.9147L80.0958 53.613L70.5025 73.7061Z" fill="black"/>
<path d="M54.2616 31.0717C52.6827 29.8471 50.8365 29.0016 48.8053 28.7072C42.3995 27.7911 36.4525 32.1938 35.521 38.6203C34.4829 45.73 40.0235 52.0277 47.1283 52.0277C52.8519 52.0277 57.8713 47.818 58.7184 41.9915C58.7202 41.9798 58.7184 41.9682 58.7202 41.9565L58.7241 41.9573L63.0053 9.60716L93.2777 6.5765L90.5211 27.4381C88.9737 26.2355 87.1388 25.3651 85.0645 25.0643C78.6986 24.1414 72.7156 28.5255 71.7802 34.9774C70.742 42.087 76.2827 48.3847 83.3875 48.3847C89.111 48.3847 94.1305 44.1751 94.9776 38.3456C94.9793 38.3339 94.9772 38.3224 94.9789 38.3107L94.9832 38.3114L100.066 0L57.8084 4.24406L54.2616 31.0717Z" fill="black"/>
<path d="M8.7313 100.026C14.2341 100.026 18.3701 95.0235 17.3824 89.6462L13.5677 68.6458L30.264 61.1509L32.3259 72.5916C31.3514 72.4357 30.3515 72.4126 29.3481 72.5959C24.578 73.4709 21.407 78.0383 22.2854 82.8266C23.0782 87.1483 26.8438 90.0326 30.9136 90.0326C36.4289 90.0326 40.5692 85.0557 39.5789 79.6559L34.6767 52.7087L6.97988 65.2002L10.1315 82.5897C9.16481 82.432 8.16475 82.3998 7.14886 82.5861C2.38103 83.459 -0.659594 88.0522 0.216022 92.8198C0.991613 97.0524 4.5732 100.026 8.7313 100.026V100.026Z" fill="black"/>
<path d="M8.8667 45.7374C12.9093 48.4138 18.3613 47.3235 21.0491 43.2649C22.3483 41.3073 22.8062 38.9608 22.3397 36.6598L19.0801 20.6168L27.0015 25.8682L30.241 20.9802L10.5236 7.91629L14.9532 29.7459C11.2992 29.2216 8.15479 30.8935 6.39399 33.552C3.70052 37.6193 4.83226 43.0656 8.8667 45.7374V45.7374Z" fill="black"/>
</svg>
