<svg width="27" height="30" viewBox="0 0 27 30" fill="none" xmlns="http://www.w3.org/2000/svg">
<path d="M2.62474 29.4971C3.51401 29.9172 4.50339 30.079 5.48014 29.964C6.45688 29.8491 7.3817 29.4621 8.14921 28.8472L20.898 18.3232L21.2479 17.9483V27.4973C21.2479 28.1603 21.5113 28.7961 21.9801 29.2649C22.4489 29.7337 23.0847 29.9971 23.7477 29.9971C24.4107 29.9971 25.0465 29.7337 25.5153 29.2649C25.9841 28.7961 26.2474 28.1603 26.2474 27.4973L26.2474 2.49976C26.2474 1.83678 25.9841 1.20096 25.5153 0.732163C25.0465 0.263368 24.4107 3.62252e-06 23.7477 3.62252e-06C23.0847 3.62252e-06 22.4489 0.263368 21.9801 0.732163C21.5113 1.20096 21.2479 1.83678 21.2479 2.49976L21.2479 12.0488L20.898 11.6739L8.14921 1.14989C7.23025 0.404647 6.08269 -0.00141046 4.89952 3.62252e-06C4.11452 0.00462339 3.33934 0.174994 2.62474 0.499957C1.85188 0.840623 1.19342 1.39655 0.727988 2.10134C0.262556 2.80614 0.0098318 3.63002 1.19209e-07 4.47457L1.19209e-07 25.5225C0.0098318 26.3671 0.262556 27.1909 0.727988 27.8957C1.19342 28.6005 1.85188 29.1565 2.62474 29.4971ZM4.99951 4.99952L17.0483 14.9985L4.99951 24.7726L4.99951 4.99952Z" fill="#8750AF"/>
</svg>
