<svg width="41" height="42" viewBox="0 0 41 42" fill="none" xmlns="http://www.w3.org/2000/svg">
<path d="M12.2477 41H4.44737C2.54344 41 1 39.4566 1 37.5526V4.47974C1 2.57582 2.54344 1.03238 4.44737 1.03238H12.2477C14.1516 1.03238 15.6951 2.57582 15.6951 4.47974V37.5526C15.6951 39.4566 14.1516 41 12.2477 41Z" fill="#3E76C1"/>
<path d="M37.0119 40.9676H29.2116C27.3076 40.9676 25.7642 39.4242 25.7642 37.5203V4.44737C25.7642 2.54344 27.3076 1 29.2116 1H37.0119C38.9158 1 40.4593 2.54344 40.4593 4.44737V37.5203C40.4593 39.4242 38.9158 40.9676 37.0119 40.9676Z" fill="#3E76C1"/>
<path d="M12.8453 1.09275C13.5182 1.72185 13.9451 2.61081 13.9451 3.60478V36.6777C13.9451 38.5816 12.4017 40.125 10.4978 40.125H2.69744C2.4927 40.125 2.29496 40.0988 2.09984 40.0647C2.71582 40.6404 3.53741 41 4.44738 41H12.2477C14.1516 41 15.6951 39.4566 15.6951 37.5526V4.47974C15.6951 2.78056 14.4631 1.37711 12.8453 1.09275Z" fill="#3E76C1"/>
<path d="M37.6095 1.06037C38.2823 1.68947 38.7093 2.57844 38.7093 3.5724V36.6453C38.7093 38.5492 37.1659 40.0927 35.262 40.0927H27.4616C27.2569 40.0927 27.0591 40.0664 26.864 40.0323C27.48 40.608 28.3016 40.9676 29.2116 40.9676H37.0119C38.9158 40.9676 40.4593 39.4242 40.4593 37.5202V4.44737C40.4593 2.74818 39.2273 1.34386 37.6095 1.06037Z" fill="#3E76C1"/>
<path d="M12.2477 41H4.44737C2.54344 41 1 39.4566 1 37.5526V4.47974C1 2.57582 2.54344 1.03238 4.44737 1.03238H12.2477C14.1516 1.03238 15.6951 2.57582 15.6951 4.47974V37.5526C15.6951 39.4566 14.1516 41 12.2477 41Z" stroke="black" stroke-miterlimit="10"/>
<path d="M37.0119 40.9676H29.2116C27.3076 40.9676 25.7642 39.4242 25.7642 37.5203V4.44737C25.7642 2.54344 27.3076 1 29.2116 1H37.0119C38.9158 1 40.4593 2.54344 40.4593 4.44737V37.5203C40.4593 39.4242 38.9158 40.9676 37.0119 40.9676Z" stroke="black" stroke-miterlimit="10"/>
</svg>
