<svg width="75" height="75" viewBox="0 0 75 75" fill="none" xmlns="http://www.w3.org/2000/svg">
<g clip-path="url(#clip0)">
<path d="M37.5001 0C16.8133 0 0 16.8133 0 37.5001C0 58.1868 16.8133 75.0002 37.5001 75.0002C58.1868 75.0002 75.0002 58.1868 75.0002 37.5001C75.0002 16.8133 58.1868 0 37.5001 0ZM37.5001 69.8922C19.6227 69.8922 5.10784 55.3773 5.10784 37.4999C5.10784 19.6225 19.6227 5.10784 37.5001 5.10784C55.3775 5.10784 69.8923 19.6227 69.8923 37.5001C69.8923 55.3775 55.3775 69.8922 37.5001 69.8922Z" fill="#3E76C1"/>
<path d="M28.9445 20.8996C27.5398 20.8996 26.3905 22.0489 26.3905 23.4535V50.2697C26.3905 51.6743 27.5398 52.8236 28.9445 52.8236C30.3491 52.8236 31.4984 51.6743 31.4984 50.2697V23.4535C31.4984 22.0489 30.3491 20.8996 28.9445 20.8996Z" fill="#3E76C1"/>
<path d="M46.3961 20.8996C44.9915 20.8996 43.8422 22.0489 43.8422 23.4535V50.2697C43.8422 51.6743 44.9915 52.8236 46.3961 52.8236C47.8008 52.8236 48.9501 51.6743 48.9501 50.2697V23.4535C48.9501 22.0489 47.8008 20.8996 46.3961 20.8996Z" fill="#3E76C1"/>
</g>
<defs>
<clipPath id="clip0">
<rect width="75" height="75" fill="white"/>
</clipPath>
</defs>
</svg>
