<svg width="100" height="100" viewBox="0 0 100 100" fill="none" xmlns="http://www.w3.org/2000/svg">
<path d="M50 100C77.6142 100 100 77.6142 100 50C100 22.3858 77.6142 0 50 0C22.3858 0 0 22.3858 0 50C0 77.6142 22.3858 100 50 100Z" fill="#35495E"/>
<path d="M90.98 78.64C90.88 78.54 90.8 78.46 90.72 78.38C82.72 70.38 74.7 62.36 66.7 54.36C55.68 43.34 44.66 32.34 33.66 21.3C32.14 19.78 29.76 19.66 28.18 21.28C27.2 22.28 26.22 23.24 25.24 24.24C24.3 25.2 23.92 26.34 24.18 27.66C24.22 27.86 24.2 28 24.04 28.14C23.96 28.22 23.88 28.3 23.8 28.38C21.68 30.38 20.62 32.9 20.28 35.76C20.02 37.92 20.18 40.06 20.6 42.2C21.24 45.4 22.3801 48.42 23.86 51.34C26.56 56.66 30.1 61.34 34.3 65.54C44.8 76.08 55.34 86.58 65.86 97.1C65.92 97.16 66 97.24 66.06 97.3C66.08 97.34 66.12 97.36 66.14 97.38C76.28 93.88 84.96 87.26 90.98 78.64Z" fill="#2C3E50"/>
<path d="M78.92 66.66L66.92 54.66C65.48 53.22 63.16 53.22 61.72 54.66L58.6 57.78C57.62 58.76 57.32 60.16 57.68 61.4L56.5 62.58C55.66 63.42 50.46 62.14 44.16 55.84C37.86 49.54 36.58 44.34 37.42 43.5L38.6 42.32C38.94 42.42 39.28 42.46 39.62 42.46C40.56 42.46 41.5 42.1 42.22 41.38L45.34 38.26C46.78 36.82 46.78 34.5 45.34 33.06L33.34 21.06C32.64 20.36 31.72 19.98 30.74 19.98C29.76 19.98 28.84 20.36 28.14 21.06L25.02 24.2C24.04 25.18 23.74 26.58 24.1 27.82C24.1 27.82 23.1 28.82 23.06 28.9C19.74 32.6 19.12 38.4 21.32 45.34C23.48 52.14 28.12 59.34 34.4 65.62C40.68 71.9 47.88 76.54 54.68 78.7C57.42 79.56 59.96 80 62.28 80C66.08 80 69.26 78.84 71.54 76.58L72.2 75.92C72.52 76.02 72.88 76.06 73.22 76.06C74.2 76.06 75.12 75.68 75.82 74.98L78.94 71.86C80.36 70.44 80.36 68.1 78.92 66.66ZM30.74 22.4L44.02 35.68L39.62 40.08L26.34 26.8L30.74 22.4ZM69.56 74.62C67.82 76.36 65.32 77.24 62.26 77.24C60.24 77.24 57.96 76.86 55.5 76.08C49.12 74.06 42.3 69.66 36.34 63.68C30.36 57.7 25.96 50.9 23.94 44.52C21.98 38.34 22.5 33.34 25.4 30.46L26.36 29.5L36.94 40.08L35.42 41.6C32.36 44.7 36.62 52.28 42.18 57.84C46.9 62.56 52.2 65.6 55.66 65.6C56.82 65.6 57.74 65.26 58.42 64.6L59.92 63.1L70.5 73.68L69.56 74.62ZM74.34 72.54C73.7 73.18 73.58 73.3 73.28 73.3C73.24 73.3 73.22 73.3 73.18 73.3L72.84 73.28L59.96 60.4L64.36 56L77.64 69.28L74.34 72.54Z" fill="white"/>
</svg>
