<svg width="100" height="100" viewBox="0 0 100 100" fill="none" xmlns="http://www.w3.org/2000/svg">
<path d="M94.4978 5.5008C90.8318 1.83383 86.4148 0 81.2503 0H18.7499C13.5854 0 9.16846 1.83383 5.5008 5.5008C1.83383 9.16846 0 13.5852 0 18.7499V81.2496C0 86.4139 1.83383 90.8311 5.5008 94.4987C9.16846 98.1664 13.5854 100 18.7499 100H81.2497C86.4141 100 90.8311 98.1664 94.4971 94.4987C98.1648 90.8311 99.9986 86.4141 99.9986 81.2496V18.7499C99.9984 13.5852 98.1646 9.16777 94.4978 5.5008ZM81.8989 75.9057C80.9874 77.9019 78.9367 79.6388 75.7473 81.1153C72.5571 82.5918 69.7243 83.33 67.2497 83.33C66.5551 83.33 65.8169 83.2764 65.0359 83.1678C64.2547 83.0586 63.5939 82.9507 63.0514 82.8422C62.5091 82.7337 61.792 82.5387 60.9031 82.2562C60.0126 81.9748 59.3719 81.757 58.9826 81.6054C58.5909 81.4539 57.8753 81.1826 56.8343 80.7922C55.7924 80.4004 55.1407 80.1617 54.8819 80.0766C47.7639 77.4709 40.8076 72.7733 34.0154 65.9811C27.2233 59.1874 22.5247 52.2326 19.9204 45.1158C19.8342 44.8551 19.5954 44.2039 19.2044 43.1627C18.814 42.1217 18.5419 41.405 18.3901 41.0149C18.2391 40.6242 18.0218 39.9839 17.7395 39.0948C17.4574 38.2048 17.2627 37.4893 17.1539 36.9461C17.0449 36.4043 16.9373 35.7428 16.8285 34.9613C16.7199 34.1799 16.6659 33.441 16.6659 32.7471C16.6659 30.273 17.404 27.4411 18.8801 24.2509C20.3559 21.0612 22.0917 19.0105 24.0886 18.0989C26.3889 17.1436 28.5808 16.6661 30.6643 16.6661C31.1411 16.6661 31.4889 16.7099 31.7053 16.7966C31.9226 16.8844 32.2808 17.2741 32.7802 17.9686C33.2796 18.6632 33.8218 19.5418 34.4077 20.6054C34.9937 21.6691 35.5688 22.7001 36.1329 23.6979C36.6971 24.696 37.2398 25.6829 37.7609 26.6603C38.2817 27.636 38.6071 28.2554 38.7371 28.5149C38.8673 28.7331 39.1496 29.1447 39.5833 29.7529C40.017 30.3601 40.3433 30.9019 40.5599 31.3799C40.7766 31.8574 40.8854 32.3132 40.8854 32.7471C40.8854 33.3991 40.44 34.1908 39.5505 35.1232C38.6604 36.0566 37.6838 36.9142 36.6202 37.6956C35.5567 38.4771 34.5805 39.3128 33.6907 40.2026C32.8016 41.0917 32.3563 41.8187 32.3563 42.3831C32.3563 42.687 32.4322 43.0448 32.5843 43.4571C32.7362 43.8703 32.8773 44.2066 33.0075 44.4666C33.1378 44.7268 33.3443 45.0959 33.626 45.5739C33.908 46.0519 34.093 46.3554 34.1792 46.4858C36.566 50.7826 39.3117 54.4829 42.4143 57.5866C45.5183 60.6908 49.2178 63.4351 53.5153 65.8224C53.6446 65.91 53.949 66.094 54.4284 66.3765C54.9052 66.6574 55.275 66.8636 55.535 66.9938C55.7956 67.124 56.1311 67.2654 56.544 67.4161C56.957 67.5675 57.315 67.6439 57.6201 67.6439C58.3124 67.6439 59.2676 66.9284 60.4842 65.4963C61.6991 64.0629 62.9369 62.6418 64.1956 61.231C65.4535 59.8215 66.4725 59.1162 67.2554 59.1162C67.6891 59.1162 68.144 59.2241 68.6233 59.4409C69.1011 59.6578 69.6424 59.9841 70.2496 60.4178C70.8583 60.8534 71.2703 61.1343 71.4874 61.2663L74.9364 63.1524C77.237 64.3682 79.1575 65.442 80.6987 66.3754C82.24 67.3087 83.0757 67.9486 83.2062 68.2952C83.2926 68.512 83.3348 68.8602 83.3348 69.3377C83.3332 71.4192 82.8554 73.6113 81.8989 75.9057Z" fill="#3A3A3A"/>
</svg>
