<svg width="75" height="75" viewBox="0 0 75 75" fill="none" xmlns="http://www.w3.org/2000/svg">
<path d="M32.0738 55.5229C31.7566 55.5229 31.4369 55.4539 31.1381 55.3148C30.3629 54.9516 29.8673 54.1723 29.8673 53.316V21.6832C29.8673 20.8269 30.3627 20.0476 31.1381 19.6844C31.9129 19.3212 32.8301 19.4395 33.487 19.9878L52.4667 35.8042C52.9701 36.2237 53.261 36.8443 53.261 37.4996C53.261 38.1547 52.9702 38.7755 52.4667 39.1951L33.487 55.0115C33.083 55.3482 32.5808 55.5229 32.0738 55.5229ZM34.2813 26.3949V48.6044L47.6068 37.4996L34.2813 26.3949Z" fill="#3EC189"/>
<path d="M37.4343 74.999C31.1508 75.0002 24.8306 73.4323 19.1064 70.2093C18.0444 69.6116 17.6678 68.2656 18.2663 67.2035C18.8633 66.1415 20.2094 65.7645 21.2721 66.3634C34.1482 73.6118 50.4473 71.3703 60.9073 60.9069C73.8143 47.9997 73.8143 26.9995 60.9073 14.0923C48.0001 1.18294 26.9981 1.18409 14.0916 14.0923C1.18502 26.9995 1.18502 47.9997 14.0916 60.9069C14.9536 61.7689 14.9536 63.1667 14.0916 64.0287C13.2307 64.8908 11.8329 64.8908 10.9708 64.0287C-3.65695 49.3998 -3.65695 25.5994 10.9708 10.9704C25.5993 -3.65623 49.3991 -3.65738 64.0292 10.9704C78.657 25.5994 78.657 49.3998 64.0292 64.0287C56.8232 71.2346 47.1723 74.999 37.4343 74.999Z" fill="#3EC189"/>
</svg>
