<svg width="37" height="42" viewBox="0 0 37 42" fill="none" xmlns="http://www.w3.org/2000/svg">
<path d="M3.84423 1.2568L35.1965 19.3579C36.4603 20.0876 36.4603 21.9124 35.1965 22.6421L3.84423 40.7432C2.5804 41.4729 1 40.5606 1 39.1011V2.89889C1 1.43943 2.57959 0.527072 3.84423 1.2568Z" fill="#00C65B"/>
<path d="M35.1965 19.3579L3.84423 1.2568C3.6551 1.14803 3.45948 1.08634 3.26304 1.04657L33.5731 18.5462C34.8369 19.2759 34.8369 21.1007 33.5731 21.8304L2.22081 39.9315C1.93752 40.0946 1.63963 40.1653 1.34579 40.1758C1.87827 40.9372 2.93755 41.2659 3.84423 40.7432L35.1965 22.6421C36.4603 21.9124 36.4603 20.0876 35.1965 19.3579Z" fill="#00C65B"/>
<path d="M3.84423 1.2568L35.1965 19.3579C36.4603 20.0876 36.4603 21.9124 35.1965 22.6421L3.84423 40.7432C2.5804 41.4729 1 40.5606 1 39.1011V2.89889C1 1.43943 2.57959 0.527072 3.84423 1.2568Z" stroke="#026200" stroke-miterlimit="10"/>
</svg>
