<svg width="27" height="30" viewBox="0 0 27 30" fill="none" xmlns="http://www.w3.org/2000/svg">
<path d="M23.6227 0.50287C22.7334 0.0828299 21.7441 -0.0789522 20.7673 0.0359588C19.7906 0.15087 18.8657 0.537853 18.0982 1.15281L5.34948 11.6768L4.99951 12.0517V2.50268C4.99951 1.8397 4.73615 1.20388 4.26735 0.735082C3.79856 0.266287 3.16273 0.00291961 2.49976 0.00291961C1.83678 0.00291961 1.20096 0.266287 0.732162 0.735082C0.263367 1.20388 0 1.8397 0 2.50268V27.5002C0 28.1632 0.263367 28.799 0.732162 29.2678C1.20096 29.7366 1.83678 30 2.49976 30C3.16273 30 3.79856 29.7366 4.26735 29.2678C4.73615 28.799 4.99951 28.1632 4.99951 27.5002V17.9512L5.34948 18.3261L18.0982 28.8501C19.0172 29.5954 20.1648 30.0014 21.3479 30C22.1329 29.9954 22.9081 29.825 23.6227 29.5C24.3956 29.1594 25.054 28.6035 25.5195 27.8987C25.9849 27.1939 26.2376 26.37 26.2474 25.5254V4.47748C26.2376 3.63293 25.9849 2.80906 25.5195 2.10426C25.054 1.39947 24.3956 0.843536 23.6227 0.50287ZM21.2479 25.0005L9.1991 15.0015L21.2479 5.22741V25.0005Z" fill="white"/>
</svg>
