<svg width="50" height="50" viewBox="0 0 50 50" fill="none" xmlns="http://www.w3.org/2000/svg">
<path d="M25 50C38.8077 50 50 38.8077 50 25C50 11.1923 38.8077 0 25 0C11.1923 0 0 11.1923 0 25C0 38.8077 11.1923 50 25 50ZM25 3.90625C36.6501 3.90625 46.0938 13.3499 46.0938 25C46.0938 36.6501 36.6501 46.0938 25 46.0938C13.3499 46.0938 3.90625 36.6501 3.90625 25C3.90625 13.3499 13.3499 3.90625 25 3.90625Z" fill="white"/>
<path d="M34.375 17.1875L25 25L34.375 32.8125V17.1875Z" fill="white"/>
<path d="M25 25V17.1875L15.625 25L25 32.8125V25Z" fill="white"/>
<path d="M15.625 23.4375V17.1875H12.5V32.8125H15.625V23.4375Z" fill="white"/>
</svg>
