<svg width="20" height="20" viewBox="0 0 20 20" fill="none" xmlns="http://www.w3.org/2000/svg">
<path d="M19.7864 8.02803L12.388 0.210402C12.0947 -0.0701341 11.6193 -0.0701341 11.326 0.210402C11.1571 0.371726 11.0971 0.590151 11.1223 0.800735V5.01076C4.98011 5.01076 0 9.80971 0 15.73C0 17.2483 0.331805 18.6909 0.92283 20C1.8005 15.5345 6.22141 12.1431 11.1097 12.1431C11.1097 12.565 11.1097 16.426 11.1097 16.426C11.0845 16.6366 11.1579 16.7729 11.326 16.9349C11.6504 17.2475 12.154 17.1183 12.4288 16.8921L19.7864 9.1173C19.9427 8.96741 20.0093 8.76895 19.999 8.57267C20.0093 8.37638 19.9427 8.17792 19.7864 8.02803Z" fill="#3EC189"/>
</svg>
