<svg width="30" height="30" viewBox="0 0 30 30" fill="none" xmlns="http://www.w3.org/2000/svg">
<path d="M22.44 20.0833L29.5117 27.155C29.8153 27.4693 29.9832 27.8903 29.9795 28.3273C29.9757 28.7643 29.8004 29.1823 29.4914 29.4914C29.1823 29.8004 28.7643 29.9757 28.3273 29.9795C27.8903 29.9833 27.4693 29.8153 27.155 29.5117L18.9817 21.3383C18.6692 21.0258 18.4937 20.6019 18.4937 20.16C18.4937 19.7181 18.6692 19.2942 18.9817 18.9817C20.5572 17.4057 21.5047 15.3097 21.6469 13.0858C21.7892 10.8618 21.1164 8.66226 19.7544 6.89841C18.3925 5.13456 16.4346 3.92725 14.247 3.50228C12.0595 3.07732 9.79198 3.4638 7.8687 4.58945C5.94542 5.7151 4.49805 7.50282 3.7973 9.61825C3.09655 11.7337 3.19041 14.0319 4.06133 16.0832C4.93225 18.1344 6.52058 19.7982 8.52925 20.7632C10.5379 21.7283 12.8294 21.9286 14.975 21.3267C15.1858 21.2676 15.4061 21.2506 15.6235 21.2766C15.8408 21.3027 16.0509 21.3713 16.2417 21.4786C16.4325 21.5858 16.6004 21.7296 16.7356 21.9017C16.8709 22.0738 16.9709 22.2709 17.03 22.4817C17.0891 22.6924 17.1061 22.9128 17.08 23.1301C17.054 23.3475 16.9854 23.5575 16.8781 23.7484C16.7708 23.9392 16.6271 24.107 16.4549 24.2423C16.2828 24.3775 16.0858 24.4776 15.875 24.5367C13.018 25.3365 9.96968 25.0941 7.27502 23.8527C4.58037 22.6114 2.41509 20.4521 1.16632 17.7608C-0.0824465 15.0696 -0.333278 12.022 0.458675 9.16278C1.25063 6.3036 3.03373 3.81932 5.48916 2.15411C7.9446 0.488901 10.9123 -0.248662 13.8616 0.0732948C16.8109 0.395252 19.5495 1.75574 21.5879 3.9115C23.6262 6.06727 24.8313 8.87775 24.9877 11.8405C25.1441 14.8032 24.2417 17.7249 22.4417 20.0833H22.44Z" fill="black"/>
</svg>
