<svg width="25" height="25" viewBox="0 0 25 25" fill="none" xmlns="http://www.w3.org/2000/svg">
<path d="M8.33226 18.0245C6.6843 18.0245 5.07334 17.4959 3.70311 16.5057C2.33287 15.5154 1.26491 14.1079 0.634259 12.4611C0.00361023 10.8143 -0.161396 9.00225 0.160106 7.25405C0.481608 5.50584 1.27518 3.90001 2.44047 2.63962C3.60575 1.37924 5.09042 0.520904 6.70672 0.173164C8.32302 -0.174575 9.99836 0.00389724 11.5209 0.686014C13.0434 1.36813 14.3447 2.52325 15.2603 4.00531C16.1758 5.48737 16.6645 7.2298 16.6645 9.01225C16.6645 11.4025 15.7867 13.6948 14.2241 15.3849C12.6615 17.075 10.5421 18.0245 8.33226 18.0245ZM8.33226 1.80245C7.01389 1.80245 5.72512 2.2253 4.62894 3.01752C3.53275 3.80974 2.67838 4.93576 2.17386 6.25318C1.66934 7.5706 1.53734 9.02025 1.79454 10.4188C2.05174 11.8174 2.6866 13.102 3.61882 14.1104C4.55105 15.1187 5.73879 15.8053 7.03183 16.0835C8.32487 16.3617 9.66514 16.2189 10.8832 15.6732C12.1012 15.1275 13.1422 14.2034 13.8747 13.0178C14.6071 11.8322 14.9981 10.4382 14.9981 9.01225C14.9981 7.10009 14.2958 5.26625 13.0457 3.91415C11.7956 2.56205 10.1001 1.80245 8.33226 1.80245V1.80245Z" fill="#8750AF"/>
<path d="M22.4971 25C21.9091 25.0008 21.3397 24.7774 20.8889 24.3691L15.7813 19.7368C15.5296 19.5084 15.322 19.2286 15.1703 18.9134C15.0186 18.5982 14.9258 18.2538 14.8972 17.8998C14.8393 17.1849 15.0465 16.4744 15.473 15.9246C15.8995 15.3749 16.5104 15.0309 17.1714 14.9684C17.8324 14.9059 18.4892 15.1299 18.9975 15.5912L24.1052 20.2235C24.4988 20.5801 24.7814 21.0591 24.9145 21.5955C25.0476 22.1319 25.0248 22.6996 24.8491 23.2214C24.6734 23.7433 24.3534 24.1939 23.9326 24.5122C23.5117 24.8304 23.0105 25.0007 22.4971 25V25ZM17.3894 16.7628H17.3144C17.1491 16.7778 16.9917 16.8459 16.8624 16.9582C16.7331 17.0706 16.6377 17.2221 16.5885 17.3934C16.5393 17.5647 16.5385 17.7481 16.5861 17.9199C16.6338 18.0917 16.7278 18.2443 16.8561 18.358L21.9638 22.9903C22.0475 23.0667 22.1443 23.1245 22.2486 23.1604C22.353 23.1963 22.4628 23.2096 22.5719 23.1996C22.6811 23.1895 22.7873 23.1563 22.8845 23.1019C22.9818 23.0474 23.0681 22.9727 23.1386 22.8821C23.209 22.7914 23.2621 22.6867 23.295 22.5738C23.3278 22.4609 23.3398 22.3421 23.3303 22.2242C23.3202 22.1057 23.2885 21.9905 23.237 21.8853C23.1855 21.7802 23.1153 21.687 23.0303 21.6114L17.9227 16.9701C17.7727 16.8357 17.5841 16.7624 17.3894 16.7628Z" fill="#8750AF"/>
<path d="M15.8313 17.1233C15.6366 17.1237 15.4479 17.0504 15.298 16.916L13.3316 15.1586C13.1614 15.0056 13.0544 14.7858 13.0341 14.5475C13.0138 14.3092 13.0818 14.0719 13.2233 13.8879C13.3647 13.7038 13.5679 13.5881 13.7883 13.5661C14.0086 13.5442 14.228 13.6177 14.3981 13.7707L16.3479 15.5281C16.4322 15.6038 16.502 15.6967 16.5531 15.8015C16.6042 15.9064 16.6357 16.0211 16.6458 16.1392C16.6558 16.2572 16.6443 16.3762 16.6117 16.4894C16.5792 16.6026 16.5263 16.7078 16.4562 16.7988C16.3797 16.8983 16.2842 16.9787 16.1764 17.0347C16.0686 17.0907 15.9509 17.1209 15.8313 17.1233Z" fill="#8750AF"/>
</svg>
