<svg width="20" height="20" viewBox="0 0 20 20" fill="none" xmlns="http://www.w3.org/2000/svg">
<path d="M0.199951 10C1.12114 8.19302 2.524 6.67591 4.25347 5.61634C5.98295 4.55677 7.97171 3.996 9.99995 3.996C12.0282 3.996 14.017 4.55677 15.7464 5.61634C17.4759 6.67591 18.8788 8.19302 19.7999 10C18.8788 11.807 17.4759 13.3241 15.7464 14.3837C14.017 15.4432 12.0282 16.004 9.99995 16.004C7.97171 16.004 5.98295 15.4432 4.25347 14.3837C2.524 13.3241 1.12114 11.807 0.199951 10V10ZM9.99995 14C11.0608 14 12.0782 13.5786 12.8284 12.8284C13.5785 12.0783 14 11.0609 14 10C14 8.93914 13.5785 7.92172 12.8284 7.17158C12.0782 6.42143 11.0608 6 9.99995 6C8.93909 6 7.92167 6.42143 7.17152 7.17158C6.42138 7.92172 5.99995 8.93914 5.99995 10C5.99995 11.0609 6.42138 12.0783 7.17152 12.8284C7.92167 13.5786 8.93909 14 9.99995 14V14ZM9.99995 12C9.46952 12 8.96081 11.7893 8.58574 11.4142C8.21067 11.0391 7.99995 10.5304 7.99995 10C7.99995 9.46957 8.21067 8.96086 8.58574 8.58579C8.96081 8.21072 9.46952 8 9.99995 8C10.5304 8 11.0391 8.21072 11.4142 8.58579C11.7892 8.96086 12 9.46957 12 10C12 10.5304 11.7892 11.0391 11.4142 11.4142C11.0391 11.7893 10.5304 12 9.99995 12Z" fill="white"/>
</svg>
