<svg width="100" height="100" viewBox="0 0 100 100" fill="none" xmlns="http://www.w3.org/2000/svg">
<path d="M89.272 0H10.728C4.80308 0 0 4.80308 0 10.728V89.272C0 95.1969 4.80308 100 10.728 100H89.272C95.1969 100 100 95.1969 100 89.272V10.728C100 4.80308 95.1969 0 89.272 0Z" fill="#20A0E1"/>
<path fill-rule="evenodd" clip-rule="evenodd" d="M65.9004 38.3141C66.2835 37.5479 67.0498 37.5479 67.0498 36.3984C65.5172 36.3984 64.3678 37.5479 63.6015 37.931L37.931 54.023L42.9119 69.7318C43.6782 68.9655 43.6782 68.1992 43.6782 66.6666C43.6782 65.9004 44.0613 64.3678 44.0613 63.6015V60.9195C44.4444 60.5364 44.4444 60.1532 44.4444 59.3869C44.4444 59.0038 44.4444 58.6207 44.4444 58.2375C44.8276 57.4712 45.2107 57.8544 45.5939 57.0881C51.341 50.9578 59.387 44.0613 65.9004 38.3141Z" fill="#CCD8E6"/>
<path fill-rule="evenodd" clip-rule="evenodd" d="M25.2874 49.4253L37.931 54.023L64.751 37.1648C65.5173 36.7816 66.2835 36.3985 67.0498 36.3985C67.0498 37.5479 65.5173 38.6973 64.751 39.4636C59.0038 44.4444 49.4253 51.7241 44.4445 57.4713L49.0422 60.9195C49.8084 60.9195 51.7242 62.8353 52.1073 63.2184C52.8736 63.6015 55.9387 65.9004 56.3219 66.6667C57.0881 66.6667 57.0881 67.0498 57.4713 67.433L61.3027 70.1149C62.8353 71.2644 64.3678 73.1801 67.0498 71.2644L75.4789 32.9502C76.6284 26.4368 73.5632 27.5862 69.3487 29.1188L26.4368 46.3602C24.9042 47.1264 23.3717 49.0421 25.2874 49.4253Z" fill="#FEFEFE"/>
<path fill-rule="evenodd" clip-rule="evenodd" d="M42.9119 69.7318L43.295 70.1149C44.0613 70.1149 44.8276 69.7318 45.5939 68.9655L52.1073 63.2184C51.7241 62.8352 49.8084 60.9195 49.0421 60.9195L44.4444 57.4713L42.9119 69.7318Z" fill="#ABBDD5"/>
<path fill-rule="evenodd" clip-rule="evenodd" d="M100 53.2567L75.0958 28.3525C75.8621 29.1188 75.8621 30.2682 75.4789 32.9502L67.0498 71.2644C64.3678 73.1801 62.8352 71.2644 61.3027 70.1149L57.4713 67.4329C57.0881 67.0498 57.0881 66.6667 56.3218 66.6667C55.9387 65.9004 52.8736 63.6015 52.1073 63.2184L45.5939 68.9655C44.8276 69.3486 44.0613 69.7318 43.295 70.1149L73.5632 100H89.272L100 89.272V53.2567Z" fill="#1A82B7"/>
<path fill-rule="evenodd" clip-rule="evenodd" d="M25.2874 49.4253L41.7624 66.2835L37.931 54.023L25.2874 49.4253Z" fill="#1A82B7"/>
</svg>
