<svg width="30" height="20" viewBox="0 0 30 20" fill="none" xmlns="http://www.w3.org/2000/svg">
<path d="M28.8462 3.28331H1.15385C0.847827 3.28331 0.554342 3.11035 0.337954 2.80248C0.121566 2.49461 0 2.07705 0 1.64165C0 1.20626 0.121566 0.788699 0.337954 0.48083C0.554342 0.17296 0.847827 0 1.15385 0H28.8462C29.1522 0 29.4457 0.17296 29.662 0.48083C29.8784 0.788699 30 1.20626 30 1.64165C30 2.07705 29.8784 2.49461 29.662 2.80248C29.4457 3.11035 29.1522 3.28331 28.8462 3.28331Z" fill="white"/>
<path d="M14.4231 11.6416H0.576923C0.423914 11.6416 0.277171 11.4687 0.168977 11.1608C0.0607828 10.8529 0 10.4354 0 9.99999C0 9.5646 0.0607828 9.14704 0.168977 8.83917C0.277171 8.5313 0.423914 8.35834 0.576923 8.35834H14.4231C14.5761 8.35834 14.7228 8.5313 14.831 8.83917C14.9392 9.14704 15 9.5646 15 9.99999C15 10.4354 14.9392 10.8529 14.831 11.1608C14.7228 11.4687 14.5761 11.6416 14.4231 11.6416Z" fill="white"/>
<path d="M28.8462 20H1.15385C0.847827 20 0.554342 19.827 0.337954 19.5192C0.121566 19.2113 0 18.7937 0 18.3583C0 17.923 0.121566 17.5054 0.337954 17.1975C0.554342 16.8896 0.847827 16.7167 1.15385 16.7167H28.8462C29.1522 16.7167 29.4457 16.8896 29.662 17.1975C29.8784 17.5054 30 17.923 30 18.3583C30 18.7937 29.8784 19.2113 29.662 19.5192C29.4457 19.827 29.1522 20 28.8462 20Z" fill="white"/>
</svg>
