<svg width="100" height="100" viewBox="0 0 100 100" fill="none" xmlns="http://www.w3.org/2000/svg">
<path d="M89.2691 0H10.7309C4.80441 0 0 4.80441 0 10.7309V89.2691C0 95.1956 4.80441 100 10.7309 100H89.2691C95.1956 100 100 95.1956 100 89.2691V10.7309C100 4.80441 95.1956 0 89.2691 0Z" fill="#2AB200"/>
<path fill-rule="evenodd" clip-rule="evenodd" d="M50.5443 15.5521C69.2069 15.5521 84.2924 30.6376 84.2924 49.1446C84.2924 67.8071 69.2069 82.8927 50.5443 82.8927C44.6345 82.8927 38.8803 81.3374 34.0591 78.6936L15.7076 84.4479L21.4619 66.4074C18.507 61.4308 16.7963 55.521 16.7963 49.1446C16.7963 30.6376 31.8818 15.5521 50.5443 15.5521ZM42.7683 46.6563C42.7683 46.6563 45.2566 50.6998 49.3002 53.9657C53.3437 57.0762 55.521 57.6983 55.521 57.6983C55.521 57.6983 59.098 53.1881 59.5646 53.1881C60.0311 53.0326 63.1415 54.4323 64.5412 55.2099C65.7854 55.832 67.6517 56.9206 67.6517 57.3872C67.6517 57.6983 67.4961 60.4976 66.563 61.5863C65.6299 62.5194 62.986 65.0077 60.4977 64.6967C48.367 63.7636 37.1695 52.7216 35.1478 44.6345C34.8367 43.2348 34.9922 37.7916 36.0809 36.3919C37.3251 34.9922 38.1027 34.0591 39.6579 33.9035C41.2131 33.748 42.1462 33.9035 42.6128 34.9922C43.2349 36.0808 45.5677 41.3685 45.7232 41.9906C45.8787 42.6127 42.6128 45.7231 42.7683 46.6563ZM37.9471 74.339C41.6796 76.2052 46.0342 77.2939 50.5443 77.2939C66.0964 77.2939 78.5381 64.6967 78.5381 49.1446C78.5381 33.748 66.0964 21.1508 50.5443 21.1508C34.9922 21.1508 22.395 33.748 22.395 49.1446C22.395 55.2099 24.4168 60.8087 27.5272 65.3188L24.4168 76.0497L35.1478 72.7838L37.9471 74.339Z" fill="white"/>
<path fill-rule="evenodd" clip-rule="evenodd" d="M84.2924 49.1446C84.2924 75.1166 56.2986 91.1353 34.0591 78.6936L15.7076 84.4479L31.2597 100H89.1136L100 89.1135V51.944L78.6936 30.6376C82.1151 35.9253 84.2924 42.3017 84.2924 49.1446Z" fill="#229000"/>
<path fill-rule="evenodd" clip-rule="evenodd" d="M37.9471 74.339C56.2986 83.5147 78.5381 70.2954 78.5381 49.1446C78.5381 33.748 66.0964 21.1508 50.5443 21.1508C27.6827 21.1508 14.619 46.9673 27.5272 65.3188L24.4168 76.0497L35.1477 72.7838L37.9471 74.339ZM60.4977 64.6967C48.367 63.7636 37.1695 52.7216 35.1477 44.6345C34.3701 41.3685 35.3033 34.3701 39.6578 33.9035C41.2131 33.748 42.1462 33.9035 42.6127 34.9922C43.2348 36.0808 45.5676 41.3685 45.7232 41.9906C45.8787 42.6127 42.6127 45.7231 42.7683 46.6563C44.479 49.6112 51.0109 56.6096 55.521 57.6982C59.8756 52.255 58.7869 52.255 64.5412 55.2099C65.7854 55.832 67.6516 56.9206 67.6516 57.3872C67.6516 62.0528 63.4526 65.0077 60.4977 64.6967Z" fill="#229000"/>
</svg>
